<?xml version="1.0" encoding="utf-8"?>
<!-- Generator: Adobe Illustrator 22.1.0, SVG Export Plug-In . SVG Version: 6.00 Build 0)  -->
<svg version="1.1" id="Layer_1" xmlns="http://www.w3.org/2000/svg" xmlns:xlink="http://www.w3.org/1999/xlink" x="0px" y="0px"
	 viewBox="0 0 461.8 720" style="enable-background:new 0 0 461.8 720;" xml:space="preserve">
<style type="text/css">
	.st0{fill:#FFFFFF;}
	.st1{fill:#E2D0AC;}
	.st2{fill:#E4CBD6;}
	.st3{fill:none;stroke:#ED2024;stroke-miterlimit:10;}
	.st4{fill:#ED2024;}
	.st5{fill:#007D4B;}
	.st6{fill:#DF1783;}
	.st7{fill:#9CD5BA;}
	.st8{fill:#D32735;}
</style>
<path class="st1" d="M417.5,497.7c-4.5,1.6-119.5,28.7-199.8,28.7c0.2,0-28.8,1.1-97.7-6.8c-11.8-1.3-65.4-8.1-71.7-9.9
	c0.8,7.3,3.8,23.7,12.7,61.4c4.1,17.3,11.5,22.4,23.5,24.4c1.3,0.2,0.1-5.2,11.3,70.6c6.2,41.7,0.8,41.6,65.1,48.4
	c57.6,5.9,122.1,5.3,190.9-5.1c19.1-2.9,22.2-16.3,23.4-33.6c0.5-6.5-0.4,1.7,9.5-86.2c11.4-2.4,18.6-9.1,21.4-22.7
	c9-44.4,11.3-62.2,11.5-69.4C417.7,497.6,417.6,497.7,417.5,497.7z"/>
<path class="st2" d="M395.6,307.4c-1.3-0.9-1.2-0.5-0.2-1.7c35.3-44.3,21.3-123.3-31.4-146.9c-1-0.4-0.8-0.1-0.7-1.2
	c0.7-10.5-4.7-37.4-7.7-46.9C318.8-7.4,141.6-33,102.9,48.7c-6.5,13.7-15.4,39.9-1.8,61.4c7.4,11.7,18.5,17,25.6,17
	c16.4,0,1.7-20.8,6.1-40.9c5.3-24,29.4-25.8,43.1-15.1c12.9,10.1,15.6,45.6-8.8,67.3c-18.7,16.6-43.9,16.8-63.8,29.7
	C80,183,75.9,211.5,88.1,237.1c-46.8,16.5-59.8,61.8-42.4,110.5C3,374.6-13.4,423,16.1,471.7c5,8.3,26.3,36.4,32.3,38.1
	c6.3,1.7,59.9,8.5,71.7,9.9c68.8,7.8,97.9,6.8,97.7,6.8c80.3,0,195.3-27.1,199.8-28.7C427.7,492.5,520.8,395.3,395.6,307.4z"/>
<path d="M186.5,467.8c0,18.1-14.7,32.8-32.8,32.8s-32.8-14.7-32.8-32.8c0-18.1,14.7-32.8,32.8-32.8S186.5,449.7,186.5,467.8z
	 M230.5,509.3c32.8,0,32.8-27.9,32.8-46.1h-65.6C197.6,481.4,197.6,509.3,230.5,509.3z M308.2,435c-18.1,0-32.8,14.7-32.8,32.8
	c0,18.1,14.7,32.8,32.8,32.8c18.1,0,32.8-14.7,32.8-32.8C341,449.7,326.3,435,308.2,435z"/>
<path d="M396.3,306.4c35.8-44.9,21.6-124.9-31.9-148.7c0.7-10.8-4.8-38-7.7-47.3C319.6-8.9,141-34.5,101.8,48.2
	c-33.2,69.9,35.3,95.1,34.1,71.2c-0.6-11.3-4.4-21.5-1.9-33c5.1-23.4,28.4-24.4,41.2-14.4c12,9.5,15.2,44.1-8.9,65.4
	c-18.4,16.4-43.6,16.6-63.6,29.5c-24.7,16-27.4,46-16.3,69.4C50.5,249,23.1,287.9,44.2,347c-39.5,25.1-60.3,73.9-29.1,125.3
	c4.3,7.1,21.7,30.5,30.2,37c17.1,72.8,15.3,83.3,39.1,87.4c3.4,23.2,6.9,46.4,10.3,69.6c2.8,19.1,2,36.9,20.1,43.1
	c17,5.8,102.7,10.6,103.7,9.9c28.5,0.6,58.3-0.3,91.3-3.6c39.9-4,56.2-3.7,63.3-20.4c2.6-6,0.8,2.6,12.9-104.7
	c12.3-2.5,19-11.4,21.4-23.4c4.8-23.8,9.6-47.5,14.4-71.3C422.1,495,526.6,397.9,396.3,306.4z M96.7,181.3
	c15.2-16.9,39.7-17.7,58.8-27.8c45.4-24.1,42.7-75.1,21.7-88.7c-22.2-14.4-58.2-2.8-50,47.2c0.4,2.4,2.4,8.3-1.4,9.5
	c-1.4,0.4-5.9-2.3-7-2.9c-28.8-15-19.3-55.6-5.6-75.9C143.7-2.3,233-6.8,298.5,41.2c57.1,41.9,60.6,111.9,58,116.9
	c-2.3,4.4-33.3,25.7-40.6,30c-66,39.4-95.7,2.3-222.6,45.9C85,217.6,83.8,195.6,96.7,181.3z M60.7,262.1c8.4-9,19.9-16.7,31.8-20.2
	c148.2-51.8,162.5,6.2,260.4-71.4c2.1-1.7,6-3.9,8.6-6.3c49.8,21.6,62.3,98.2,28.4,138.8c-47.9-15.9-94.1,8.1-139.1,22.9
	c-93.4,30.6-140.9-12.6-200.3,17.6C41,315.9,39.4,284.8,60.7,262.1z M12.7,451.8c-15-38.2,3.2-79.6,37.6-100.1
	c52.3-31.2,104.7,9.1,189.3-14.8c51.4-14.6,98.6-44.3,149.9-26.4c68.3,46.5,87.6,104,37.2,169.1c-6.4,8.3-10.1,11.8-10.3,12.4
	c-9.7,2.8-85.5,19.8-147.2,25.9c-64.8,6.4-141.7-1.9-206.6-11.8c-16.9-2.6-12.1-1.3-18.4-7.9C31.4,484.6,19.6,469.2,12.7,451.8z
	 M92.5,603.3c12.9,10,25.8,20.1,38.3,30.7c-10,9.8-19.6,20.1-29.3,30.3C98.5,643.9,95.5,623.6,92.5,603.3z M318,634.7
	c-16.3,13.8-31.9,28.2-46.9,43.5c-11.9-11.9-24.2-23.4-36.7-34.7c14.9-13.3,30.1-26.3,45.6-39.2C293,614.2,305.9,624,318,634.7z
	 M286.6,600.4c22.9-1.2,60.9-4.1,85.2-7.5c-16.6,11.9-32.7,24.3-48.3,37.2C311.7,619.6,299.1,610,286.6,600.4z M229.1,638.7
	c-14.1-12.6-28.6-24.9-43.3-37.2c29,0.7,58.1,0.6,87.1-0.6C258.1,613.4,243.4,625.9,229.1,638.7z M223.8,643.5
	c-12.3,11.1-24.3,22.5-36,34.3c-39-41.4-48.2-42.5-44.8-45.6c11-10.1,23.2-18.9,35.1-27.9C193.6,617.2,208.9,630.2,223.8,643.5z
	 M136,629c-12.6-10.6-25.6-20.9-38.7-31c74.1,3.1,49.9,2.3,73.3,3.1C156.7,611.6,147.5,618.3,136,629z M158.8,708.4
	c-51.3-5.5-52.4-4.4-56-35.2c11.1-11.5,22-23.4,33.5-34.6c17.1,14.6,30.5,27.3,46.5,44.3C174.6,691.2,166.6,699.7,158.8,708.4z
	 M167.6,709.3c6.6-7.2,13.2-14.3,20-21.2c7.2,7.8,14.2,15.8,21.1,23.9C193.5,711.5,180.9,710.6,167.6,709.3z M240.1,712.5
	c-7.3,0.1-14.5,0-21.8-0.1c-8.3-9.9-16.9-19.7-25.6-29.3c11.9-11.9,24.1-23.5,36.5-34.8c12.6,11.4,25,23,37,35.1
	C257.2,692.8,248.5,702.5,240.1,712.5z M249.6,712.3c7-8.2,14.2-16.1,21.6-23.8c7,7.1,13.8,14.3,20.6,21.7
	C277.7,711.3,263.7,712,249.6,712.3z M300.8,709.5c-8-8.9-16.2-17.6-24.6-26.1c15-15.4,30.8-29.9,47.2-43.8
	c15.6,14.4,30.2,29.9,45,45.1C365.8,706.1,352.6,704.9,300.8,709.5z M369.3,675.5c-13.3-13.7-26.5-27.6-40.5-40.5
	c15.9-13.2,32.4-25.8,49.3-37.8C375.9,616.8,369.5,674.2,369.3,675.5z M391.5,581.2c-5.6,3.5-13,3.3-19.3,4.1
	c-94.7,11.8-165.7,11.5-262.2,5.6c-45.4-2.8-36.4,7.5-56.8-79.1c15.4,2.6,56.8,7.8,66.7,8.9c90.1,10.3,136.3,9.8,232.3-8.1
	c11.2-2.1,48.1-9.5,61.5-12.8C399.4,571.2,400.5,575.7,391.5,581.2z"/>
<path class="st6" d="M224,491.4c-3.5-3.5-4.9,6.5-20.7,2.6c-10.8-2.7-20.3,7.2-10.8,18.4c8.3,9.8,18.8,5.7,26.1-0.7
	C225.8,505.4,228.6,495.9,224,491.4z"/>
<path class="st0" d="M144.2,472.1c-6.5,0-11.7-5.2-11.7-11.7s5.2-11.7,11.7-11.7c6.5,0,11.7,5.2,11.7,11.7S150.6,472.1,144.2,472.1z
	 M155.9,474.6c-3.2,0-5.8,2.6-5.8,5.8s2.6,5.8,5.8,5.8s5.8-2.6,5.8-5.8S159.1,474.6,155.9,474.6z M310.3,460.4
	c0-6.5-5.2-11.7-11.7-11.7c-6.5,0-11.7,5.2-11.7,11.7s5.2,11.7,11.7,11.7C305.1,472.1,310.3,466.8,310.3,460.4z M310.3,474.6
	c-3.2,0-5.8,2.6-5.8,5.8s2.6,5.8,5.8,5.8c3.2,0,5.8-2.6,5.8-5.8S313.5,474.6,310.3,474.6z"/>
</svg>
